<svg xmlns="http://www.w3.org/2000/svg" width="17.153" height="17.153" viewBox="0 0 17.153 17.153">
  <g id="Icon_material-outline-contactless" data-name="Icon material-outline-contactless" transform="translate(26.279 0.885)">
    <path id="Caminho_44" data-name="Caminho 44" d="M11.577,3a8.577,8.577,0,1,0,8.577,8.577A8.58,8.58,0,0,0,11.577,3Zm0,15.438a6.861,6.861,0,1,1,6.861-6.861A6.859,6.859,0,0,1,11.577,18.438Z" transform="translate(-29.279 -3.885)" fill="#4fedd9"/>
    <path id="Caminho_45" data-name="Caminho 45" d="M10.65,13.3a4.126,4.126,0,0,1,0,3.445l1.289.584a5.483,5.483,0,0,0,0-4.612Zm5.864-2.682a9.85,9.85,0,0,1,1.111,4.367A10.1,10.1,0,0,1,16.514,19.4l1.271.621a11.522,11.522,0,0,0,1.252-5.036,11.276,11.276,0,0,0-1.252-5l-1.271.631Zm-2.946,1.308a7.14,7.14,0,0,1,.753,3.2,5.945,5.945,0,0,1-.734,2.965l1.224.7a7.321,7.321,0,0,0,.922-3.661,8.491,8.491,0,0,0-.9-3.831Z" transform="translate(-32.704 -6.99)" fill="#4fedd9"/>
  </g>
</svg>
