<svg xmlns="http://www.w3.org/2000/svg" width="20.05" height="16.819" viewBox="0 0 20.05 16.819">
  <path id="Icon_material-outline-campaign" data-name="Icon material-outline-campaign" d="M19,12.563l-1,1.875h3.75V12.563Zm-2.875,6.2c.9.666,2.072,1.547,3,2.241.375-.5.75-1,1.125-1.5-.928-.694-2.1-1.575-3-2.25C16.875,17.756,16.5,18.263,16.125,18.759ZM20.25,7.5c-.375-.5-.75-1-1.125-1.5-.928.694-2.1,1.575-3,2.25.375.5.75,1,1.125,1.5C18.15,9.075,19.322,8.2,20.25,7.5ZM4.875,10.688A1.881,1.881,0,0,0,3,12.563v1.875a1.881,1.881,0,0,0,1.875,1.875h.938v3.75H7.688v-3.75h.938l4.688,2.813V7.875L8.625,10.688Z" transform="translate(-2.35 -5.09)" fill="none" stroke="#4fedd9" stroke-width="1.3"/>
</svg>
